<svg width="25" height="25" viewBox="0 0 25 25" fill="none" xmlns="http://www.w3.org/2000/svg">
<g clip-path="url(#clip0_2_34)">
<path d="M12.489 3.9382e-08C9.17671 3.9382e-08 6.00009 1.3158 3.65794 3.65794C1.3158 6.00009 0 9.17671 0 12.489C0 15.8013 1.3158 18.9779 3.65794 21.3201C6.00009 23.6622 9.17671 24.978 12.489 24.978C12.865 24.978 13.2397 24.9613 13.613 24.928C13.96 24.897 14.304 24.849 14.645 24.79L14.776 24.767C17.8371 24.1971 20.5748 22.5043 22.4525 20.0205C24.3302 17.5367 25.2124 14.4411 24.9261 11.3406C24.6398 8.24018 23.2057 5.35847 20.9049 3.26053C18.6041 1.1626 15.6027 -0.00024709 12.489 3.9382e-08ZM11.489 24.1H11.46C11.136 24.071 10.815 24.028 10.496 23.973L10.442 23.964C10.1307 23.908 9.82233 23.8393 9.517 23.758L9.443 23.739C9.143 23.658 8.851 23.565 8.561 23.461L8.471 23.429C8.187 23.329 7.907 23.207 7.632 23.081L7.532 23.035C7.262 22.91 6.998 22.77 6.738 22.622L6.628 22.56C6.37267 22.4113 6.123 22.2523 5.879 22.083L5.768 22.006C5.528 21.835 5.293 21.654 5.068 21.465L5 21.41V17.9C5.00159 16.6861 5.48453 15.5223 6.34291 14.6639C7.2013 13.8055 8.36506 13.3226 9.579 13.321H15.4C16.6145 13.3218 17.779 13.8044 18.638 14.6629C19.4971 15.5213 19.9804 16.6855 19.982 17.9V21.41L19.927 21.456C19.6943 21.65 19.4553 21.834 19.21 22.008L19.11 22.075C18.8627 22.247 18.609 22.409 18.349 22.561L18.249 22.616C17.986 22.766 17.718 22.907 17.449 23.035L17.354 23.077C17.077 23.205 16.795 23.323 16.509 23.428L16.426 23.458C16.135 23.558 15.839 23.658 15.54 23.738L15.468 23.756C15.162 23.837 14.854 23.906 14.542 23.962L14.488 23.97C14.169 24.026 13.847 24.07 13.523 24.098H13.494C13.161 24.127 12.828 24.142 12.494 24.142C12.16 24.142 11.821 24.129 11.489 24.101V24.1ZM20.818 20.638V17.9C20.8161 16.4643 20.2445 15.088 19.2286 14.0734C18.2128 13.0589 16.8357 12.489 15.4 12.489H9.575C8.14031 12.4906 6.76482 13.0612 5.75025 14.0755C4.73567 15.0899 4.16485 16.4653 4.163 17.9V20.638C2.55677 18.9985 1.47031 16.9213 1.03984 14.6669C0.609375 12.4125 0.854068 10.0811 1.74324 7.96516C2.63241 5.84922 4.12648 4.04288 6.0381 2.77264C7.94973 1.50239 10.1938 0.824791 12.489 0.824791C14.7842 0.824791 17.0283 1.50239 18.9399 2.77264C20.8515 4.04288 22.3456 5.84922 23.2348 7.96516C24.1239 10.0811 24.3686 12.4125 23.9382 14.6669C23.5077 16.9213 22.4212 18.9985 20.815 20.638H20.818Z" fill="white"/>
<path d="M12.4892 3.33008C11.6658 3.33008 10.8609 3.57423 10.1763 4.03167C9.49173 4.4891 8.95816 5.13927 8.64307 5.89996C8.32798 6.66065 8.24553 7.49769 8.40616 8.30524C8.56679 9.11278 8.96328 9.85455 9.54549 10.4368C10.1277 11.019 10.8695 11.4155 11.677 11.5761C12.4846 11.7367 13.3216 11.6543 14.0823 11.3392C14.843 11.0241 15.4931 10.4905 15.9506 9.80591C16.408 9.12131 16.6522 8.31644 16.6522 7.49308C16.6522 6.38898 16.2136 5.33011 15.4329 4.54939C14.6522 3.76868 13.5933 3.33008 12.4892 3.33008ZM12.4892 10.8231C11.8306 10.8231 11.1867 10.6278 10.6391 10.2619C10.0915 9.89596 9.6647 9.37589 9.41266 8.76741C9.16062 8.15893 9.09467 7.48939 9.22316 6.84343C9.35165 6.19747 9.6688 5.60412 10.1345 5.13841C10.6002 4.6727 11.1936 4.35555 11.8395 4.22706C12.4855 4.09858 13.155 4.16452 13.7635 4.41656C14.372 4.6686 14.8921 5.09541 15.258 5.64303C15.6239 6.19064 15.8192 6.83447 15.8192 7.49308C15.8192 7.93038 15.733 8.36339 15.5657 8.76741C15.3983 9.17142 15.1531 9.53852 14.8438 9.84774C14.5346 10.157 14.1675 10.4023 13.7635 10.5696C13.3595 10.737 12.9265 10.8231 12.4892 10.8231Z" fill="white"/>
</g>
<defs>
<clipPath id="clip0_2_34">
<rect width="25" height="25" fill="white"/>
</clipPath>
</defs>
</svg>
